PathFileType	4	(X/Y/Z)	/Users/itak/Documents/Research/Walk-IL/dataset/trc/00200_00008.trc
DataRate	CameraRate	NumFrames	NumMarkers	Units	OrigDataRate	OrigDataStartFrame	OrigNumFrames
100.000000	100.000000	4	53	mm	100.000000	137	550
Frame#	Time	RPSI			LPSI			L3			STRN			T10			C7			CLAV			RBAK			LBAK			LSHO			LUPA			LAEL			LAOL			LWTS			LWPS			LFRA			LIFD			LHPS			LHTS			RSHO			RUPA			RAEL			RAOL			RWTS			RWPS			RFRA			RIFD			RHTS			RHPS			RBHD			LFHD			RFHD			LBHD			LHIP			RHIP			RASI			LASI			LKNE			LTHI			LANK			LTIP			LTOE			LMT1			LMT5			LHEE			RKNE			RTHI			RANK			RTIP			RTOE			RMT1			RMT5			RHEE			
		X1	Y1	Z1	X2	Y2	Z2	X3	Y3	Z3	X4	Y4	Z4	X5	Y5	Z5	X6	Y6	Z6	X7	Y7	Z7	X8	Y8	Z8	X9	Y9	Z9	X10	Y10	Z10	X11	Y11	Z11	X12	Y12	Z12	X13	Y13	Z13	X14	Y14	Z14	X15	Y15	Z15	X16	Y16	Z16	X17	Y17	Z17	X18	Y18	Z18	X19	Y19	Z19	X20	Y20	Z20	X21	Y21	Z21	X22	Y22	Z22	X23	Y23	Z23	X24	Y24	Z24	X25	Y25	Z25	X26	Y26	Z26	X27	Y27	Z27	X28	Y28	Z28	X29	Y29	Z29	X30	Y30	Z30	X31	Y31	Z31	X32	Y32	Z32	X33	Y33	Z33	X34	Y34	Z34	X35	Y35	Z35	X36	Y36	Z36	X37	Y37	Z37	X38	Y38	Z38	X39	Y39	Z39	X40	Y40	Z40	X41	Y41	Z41	X42	Y42	Z42	X43	Y43	Z43	X44	Y44	Z44	X45	Y45	Z45	X46	Y46	Z46	X47	Y47	Z47	X48	Y48	Z48	X49	Y49	Z49	X50	Y50	Z50	X51	Y51	Z51	X52	Y52	Z52	X53	Y53	Z53	

138	1.37	-1678.494140625	1052.15087890625	-637.720703125	-1663.388061523438	1052.552124023438	-761.139404296875	-1667.421630859375	1091.179077148438	-698.9354248046875	-1396.559936523438	1281.129272460938	-677.0913696289062	-1688.936279296875	1249.758666992188	-714.0953369140625	-1604.368408203125	1514.003295898438	-721.7333374023438	-1414.211059570312	1396.7001953125	-691.0493774414062	-1697.780517578125	1346.34375	-619.9695434570312	-1600.14697265625	1487.68310546875	-822.3790893554688	-1515.354125976562	1467.5126953125	-890.5787353515625	-1544.488525390625	1334.707885742188	-965.1231079101562	-1536.9580078125	1114.960205078125	-975.8026733398438	-1596.998168945312	1105.09765625	-911.7368774414062	-1454.69140625	874.9049682617188	-925.8541870117188	-1527.873657226562	861.550048828125	-979.7940063476562	-1529.493286132812	1004.175720214844	-986.7362060546875	-1460.556640625	689.5244140625	-903.4285888671875	-1513.199096679688	790.5449829101562	-973.1864013671875	-1445.659301757812	796.0631103515625	-944.2282104492188	-1567.848022460938	1490.450927734375	-533.7609252929688	-1601.137573242188	1426.037719726562	-468.0340576171875	-1636.86279296875	1138.075561523438	-413.0679626464844	-1625.296142578125	1128.515869140625	-509.947998046875	-1491.560302734375	914.8220825195312	-402.6974182128906	-1572.063598632812	895.5189208984375	-369.1910095214844	-1615.490478515625	1065.743286132812	-389.0011291503906	-1467.898681640625	722.8613891601562	-421.4175415039062	-1463.818603515625	822.262451171875	-389.7031555175781	-1540.395751953125	814.2646484375	-364.4778442382812	-1549.4619140625	1669.940795898438	-637.5906372070312	-1367.11865234375	1713.922607421875	-749.0339965820312	-1380.540283203125	1710.557739257812	-620.216796875	-1542.24462890625	1680.971557617188	-774.4837646484375	-1555.128295898438	983.4044799804688	-869.3320922851562	-1541.635009765625	1010.352600097656	-494.271240234375	-1452.531616210938	1032.597900390625	-547.0614624023438	-1432.273315429688	1013.853088378906	-805.0283203125	-1581.196166992188	487.4487915039062	-804.4702758789062	-1560.9384765625	627.3027954101562	-838.8347778320312	-1705.099853515625	39.19808197021484	-772.6012573242188	-1638.74609375	266.6087951660156	-800.874267578125	-1481.941772460938	38.8377571105957	-759.5901489257812	-1530.514770507812	38.77502059936523	-709.2037963867188	-1598.088623046875	35.88776397705078	-816.929443359375	-1751.299194335938	37.93456649780273	-700.0320434570312	-1347.79638671875	537.966064453125	-504.5134582519531	-1428.126953125	799.9688720703125	-480.8446655273438	-1571.088256835938	96.78772735595703	-480.181640625	-1358.501953125	412.59375	-508.8734436035156	-1356.253540039062	60.92142486572266	-478.2859802246094	-1401.30810546875	55.66972351074219	-529.9570922851562	-1470.460327148438	73.80204010009766	-428.7414855957031	-1609.478271484375	99.83682250976562	-555.7257080078125	
139	1.38	-1676.059814453125	1052.130981445312	-638.193603515625	-1660.75439453125	1052.458740234375	-761.5654296875	-1664.82177734375	1091.124267578125	-699.46875	-1393.633911132812	1280.733642578125	-676.9528198242188	-1686.023071289062	1249.728271484375	-714.7916870117188	-1601.208618164062	1513.97412109375	-722.1246337890625	-1411.067504882812	1396.341796875	-690.859619140625	-1694.998779296875	1346.277099609375	-620.6807861328125	-1596.597045898438	1487.627685546875	-822.6522216796875	-1511.63916015625	1467.422241210938	-890.6356201171875	-1540.791381835938	1334.723754882812	-965.396240234375	-1533.755004882812	1115.037353515625	-976.2114868164062	-1593.902587890625	1105.233154296875	-912.2133178710938	-1452.422607421875	874.5364379882812	-926.677734375	-1525.670043945312	861.6424560546875	-980.7494506835938	-1526.685546875	1004.286193847656	-987.3629150390625	-1459.258178710938	689.0804443359375	-904.7537841796875	-1511.26123046875	790.5075073242188	-974.3028564453125	-1443.769165039062	795.701416015625	-945.2738037109375	-1565.171630859375	1490.108642578125	-533.9874267578125	-1598.875	1425.783935546875	-468.4427185058594	-1636.093872070312	1138.051635742188	-413.8184509277344	-1623.789428710938	1128.430908203125	-510.5754699707031	-1491.718505859375	914.2073364257812	-402.4396667480469	-1572.588989257812	895.218017578125	-369.4018249511719	-1615.193115234375	1065.646728515625	-389.5782165527344	-1468.71923828125	722.1047973632812	-420.9544067382812	-1464.5029296875	821.5130615234375	-389.1918640136719	-1541.3310546875	813.8389282226562	-364.5136413574219	-1546.27587890625	1669.5625	-637.6072998046875	-1363.5185546875	1713.511474609375	-748.4373168945312	-1377.423706054688	1710.089721679688	-619.6553344726562	-1538.59326171875	1680.648803710938	-774.49072265625	-1552.609619140625	982.9898681640625	-869.5743408203125	-1539.268188476562	1010.583862304688	-494.6363525390625	-1450.357421875	1032.3837890625	-547.2687377929688	-1429.786254882812	1013.380432128906	-805.2857666015625	-1579.852294921875	487.1271667480469	-804.3025512695312	-1559.268310546875	626.9893798828125	-838.701171875	-1705.087280273438	39.22629165649414	-772.5497436523438	-1638.15869140625	266.5111083984375	-800.763671875	-1481.904541015625	38.81029891967773	-759.6024780273438	-1530.47998046875	38.75606155395508	-709.2158203125	-1598.094604492188	35.87557983398438	-816.9422607421875	-1751.281494140625	38.03292083740234	-699.9899291992188	-1342.120239257812	539.8163452148438	-504.2608032226562	-1424.74951171875	801.1909790039062	-480.7419128417969	-1555.710693359375	93.45842742919922	-481.0720520019531	-1350.462036132812	414.1617126464844	-508.7724914550781	-1340.119873046875	62.95112609863281	-478.9438781738281	-1384.843627929688	56.735595703125	-530.65087890625	-1454.638549804688	73.02198791503906	-429.5217895507812	-1593.957275390625	95.62462615966797	-556.5813598632812	
140	1.39	-1673.532470703125	1052.038940429688	-638.6314086914062	-1658.029052734375	1052.31201171875	-761.9486083984375	-1662.127563476562	1091.013305664062	-699.9548950195312	-1390.608642578125	1280.273193359375	-676.78955078125	-1683.002319335938	1249.679443359375	-715.4302978515625	-1597.862548828125	1513.864135742188	-722.4015502929688	-1407.802001953125	1395.927856445312	-690.6250610351562	-1692.075439453125	1346.180908203125	-621.3179321289062	-1592.91552734375	1487.559692382812	-822.8406982421875	-1507.786254882812	1467.32177734375	-890.6155395507812	-1536.985107421875	1334.772216796875	-965.6325073242188	-1530.476318359375	1115.1279296875	-976.6094360351562	-1590.729248046875	1105.381591796875	-912.6810913085938	-1449.994995117188	874.2269287109375	-927.4411010742188	-1523.294555664062	861.7357788085938	-981.6461791992188	-1523.769897460938	1004.399719238281	-987.9619140625	-1457.77099609375	688.6827392578125	-905.9813842773438	-1509.137084960938	790.490966796875	-975.3357543945312	-1441.6904296875	795.3888549804688	-946.23779296875	-1562.324584960938	1489.710693359375	-534.1378173828125	-1596.429321289062	1425.47265625	-468.7764892578125	-1635.1220703125	1137.98779296875	-414.5138549804688	-1622.113159179688	1128.296508789062	-511.1531677246094	-1491.830688476562	913.441162109375	-402.1573486328125	-1573.089599609375	894.8621826171875	-369.5523681640625	-1614.722290039062	1065.517822265625	-390.0997314453125	-1469.768676757812	721.1970825195312	-420.4010314941406	-1465.251342773438	820.5914916992188	-388.6195678710938	-1542.313354492188	813.3350219726562	-364.4748229980469	-1542.999389648438	1669.06982421875	-637.5121459960938	-1359.907348632812	1713.128051757812	-747.7716674804688	-1374.260009765625	1709.62451171875	-619.023193359375	-1534.904296875	1680.234619140625	-774.3882446289062	-1549.977661132812	982.5474243164062	-869.7763671875	-1536.717163085938	1010.752258300781	-494.9452819824219	-1448.087646484375	1032.126708984375	-547.4286499023438	-1427.19970703125	1012.888427734375	-805.5010375976562	-1578.441772460938	486.7955932617188	-804.1304931640625	-1557.473266601562	626.6625366210938	-838.54296875	-1705.070190429688	39.24910736083984	-772.5077514648438	-1637.53076171875	266.4458618164062	-800.6674194335938	-1481.868041992188	38.77980804443359	-759.62109375	-1530.44580078125	38.73413467407227	-709.229736328125	-1598.107421875	35.84799575805664	-816.966796875	-1751.25341796875	38.13302230834961	-699.9531860351562	-1336.661499023438	541.5078735351562	-503.91748046875	-1421.370849609375	802.3015747070312	-480.6284790039062	-1539.3603515625	89.64114379882812	-481.6495361328125	-1342.449584960938	415.5828247070312	-508.526123046875	-1323.072387695312	64.96979522705078	-479.48291015625	-1367.477416992188	57.70723342895508	-531.1820068359375	-1437.81103515625	71.95172119140625	-430.0781860351562	-1577.454223632812	90.83116912841797	-557.053466796875	
141	1.4	-1670.905029296875	1051.864501953125	-639.0241088867188	-1655.20654296875	1052.1005859375	-762.2808227539062	-1659.342407226562	1090.836791992188	-700.3836669921875	-1387.494140625	1279.729614257812	-676.5977783203125	-1679.875	1249.604370117188	-716.002685546875	-1594.308471679688	1513.654174804688	-722.5554809570312	-1404.41943359375	1395.443359375	-690.3402099609375	-1689.0146484375	1346.048217773438	-621.8749389648438	-1589.097900390625	1487.46728515625	-822.9454956054688	-1503.796997070312	1467.196044921875	-890.5176391601562	-1533.066528320312	1334.832397460938	-965.8294677734375	-1527.115356445312	1115.21484375	-977.0010375976562	-1587.476440429688	1105.527099609375	-913.1521606445312	-1447.40771484375	873.9671630859375	-928.14208984375	-1520.740966796875	861.8134155273438	-982.4848022460938	-1520.738891601562	1004.499572753906	-988.536376953125	-1456.044311523438	688.331787109375	-907.0875854492188	-1506.818359375	790.4789428710938	-976.2832641601562	-1439.414184570312	795.1124267578125	-947.1119384765625	-1559.3037109375	1489.251098632812	-534.2088623046875	-1593.799194335938	1425.096801757812	-469.0326232910156	-1633.93798828125	1137.873046875	-415.1471862792969	-1620.262573242188	1128.1005859375	-511.6754150390625	-1491.901611328125	912.5208740234375	-401.8399047851562	-1573.5546875	894.444091796875	-369.6446838378906	-1614.071166992188	1065.342895507812	-390.5625	-1471.012817382812	720.1383056640625	-419.7516174316406	-1466.054443359375	819.499267578125	-387.9870910644531	-1543.336303710938	812.7474975585938	-364.3661804199219	-1539.635498046875	1668.455932617188	-637.307861328125	-1356.28564453125	1712.76220703125	-747.0369262695312	-1371.050537109375	1709.153686523438	-618.318359375	-1531.180786132812	1679.724365234375	-774.177490234375	-1547.234741210938	982.0768432617188	-869.9398803710938	-1534.026245117188	1010.841918945312	-495.2068176269531	-1445.693237304688	1031.831787109375	-547.54736328125	-1424.498901367188	1012.373779296875	-805.66796875	-1576.973999023438	486.4569396972656	-803.953857421875	-1555.563110351562	626.3206176757812	-838.3642578125	-1705.050537109375	39.26702117919922	-772.4761962890625	-1636.873779296875	266.4139099121094	-800.5828857421875	-1481.833129882812	38.74574279785156	-759.6452026367188	-1530.410888671875	38.70877075195312	-709.2431030273438	-1598.12890625	35.80214691162109	-817.0048828125	-1751.216918945312	38.23608016967773	-699.9216918945312	-1331.412475585938	543.023681640625	-503.466552734375	-1417.982055664062	803.2843017578125	-480.5081787109375	-1522.109741210938	85.46778106689453	-481.9151611328125	-1334.49072265625	416.8660278320312	-508.1202697753906	-1305.22607421875	67.03228759765625	-479.8335571289062	-1349.338745117188	58.6395149230957	-531.498779296875	-1420.088623046875	70.69353485107422	-430.3889465332031	-1560.030517578125	85.59563446044922	-557.16796875	
